#Comment line ignore any data following # character 
#Hierarchical Translation and Rotation (.htr) file 
[Header]	
#Header keywords are followed by a single value 
FileType HTR		#Single word string
DataType HTRS		#Translation followed by rotation and scale data
FileVersion 1		#integer
NumSegments 84		#integer
NumFrames 2		#integer
DataFrameRate 30		#integer, data frame rate in this file
EulerRotationOrder ZYX
CalibrationUnits mm
RotationUnits Degrees
GlobalAxisofGravity Y
BoneLengthAxis Y
ScaleFactor 1.00
[SegmentNames&Hierarchy]
#CHILD	PARENT
MASTER GLOBAL
root MASTER
chest root
L_mid_tent01 root
R_mid_tent01 root
spine01 root
Bip01_Neck chest
L_humerus chest
R_humerus chest
weapon_bone chest
Bip01_Head Bip01_Neck
eye_left_bone Bip01_Head
eye_right_bone Bip01_Head
L_forearm L_humerus
L_front_hand L_forearm
L_weapon_bone L_forearm
L_front_hand01_01 L_front_hand
L_front_hand02_01 L_front_hand
L_front_hand03_01 L_front_hand
L_front_hand01_02 L_front_hand01_01
L_front_hand02_02 L_front_hand02_01
L_front_hand03_02 L_front_hand03_01
R_forearm R_humerus
R_front_hand R_forearm
R_weapon_bone R_forearm
R_front_hand01_01 R_front_hand
R_front_hand02_01 R_front_hand
R_front_hand03_01 R_front_hand
R_front_hand01_02 R_front_hand01_01
R_front_hand02_02 R_front_hand02_01
R_front_hand03_02 R_front_hand03_01
null_rope01_connect L_mid_tent01
Rope1_Seg01 null_rope01_connect
Rope1_Seg02 Rope1_Seg01
Rope1_Seg03 Rope1_Seg02
Rope1_Seg04 Rope1_Seg03
Rope1_Seg05 Rope1_Seg04
Rope1_Seg06 Rope1_Seg05
Rope1_Seg07 Rope1_Seg06
Rope1_Seg09 Rope1_Seg07
L_mid_hand01 Rope1_Seg09
L_mid_hand02 Rope1_Seg09
L_mid_hand03 Rope1_Seg09
null_rope02_connect R_mid_tent01
Rope2_Seg01 null_rope02_connect
Rope2_Seg02 Rope2_Seg01
Rope2_Seg03 Rope2_Seg02
Rope2_Seg04 Rope2_Seg03
Rope2_Seg05 Rope2_Seg04
Rope2_Seg06 Rope2_Seg05
Rope2_Seg07 Rope2_Seg06
Rope2_Seg09 Rope2_Seg07
R_mid_hand01 Rope2_Seg09
R_mid_hand02 Rope2_Seg09
R_mid_hand03 Rope2_Seg09
spine02 spine01
spine03 spine02
pelvis spine03
null_rope03_connect pelvis
null_rope04_connect pelvis
Rope3_Seg01 null_rope03_connect
Rope3_Seg02 Rope3_Seg01
Rope3_Seg03 Rope3_Seg02
Rope3_Seg04 Rope3_Seg03
Rope3_Seg05 Rope3_Seg04
Rope3_Seg06 Rope3_Seg05
Rope3_Seg07 Rope3_Seg06
Rope3_Seg08 Rope3_Seg07
Rope3_Seg09 Rope3_Seg08
R_rear_hand01 Rope3_Seg09
R_rear_hand02 Rope3_Seg09
R_rear_hand03 Rope3_Seg09
Rope4_Seg01 null_rope04_connect
Rope4_Seg02 Rope4_Seg01
Rope4_Seg03 Rope4_Seg02
Rope4_Seg04 Rope4_Seg03
Rope4_Seg05 Rope4_Seg04
Rope4_Seg06 Rope4_Seg05
Rope4_Seg07 Rope4_Seg06
Rope4_Seg08 Rope4_Seg07
Rope4_Seg09 Rope4_Seg08
L_rear_hand01 Rope4_Seg09
L_rear_hand02 Rope4_Seg09
L_rear_hand03 Rope4_Seg09
[BasePosition]
#SegmentName Tx, Ty, Tz, Rx, Ry, Rz, BoneLength
MASTER 0.000000 0.000000 0.000000 -90.000000 0.000000 0.000000 10.000000 
root 0.000000 0.000000 0.000000 0.000000 0.000000 0.000000 10.000000 
chest 0.000000 0.000000 0.000000 0.000000 0.000000 0.000000 10.000000 
L_mid_tent01 0.000000 0.000000 0.000000 0.000000 0.000000 0.000000 10.000000 
R_mid_tent01 0.000000 0.000000 0.000000 0.000000 0.000000 0.000000 10.000000 
spine01 0.000000 0.000000 0.000000 0.000000 0.000000 0.000000 10.000000 
Bip01_Neck 0.000000 0.000000 0.000000 0.000000 0.000000 0.000000 10.000000 
L_humerus 0.000000 0.000000 0.000000 0.000000 0.000000 0.000000 10.000000 
R_humerus 0.000000 0.000000 0.000000 0.000000 0.000000 0.000000 10.000000 
weapon_bone 0.000000 0.000000 0.000000 0.000000 0.000000 0.000000 10.000000 
Bip01_Head 0.000000 0.000000 0.000000 0.000000 0.000000 0.000000 10.000000 
eye_left_bone 0.000000 0.000000 0.000000 0.000000 0.000000 0.000000 10.000000 
eye_right_bone 0.000000 0.000000 0.000000 0.000000 0.000000 0.000000 10.000000 
L_forearm 0.000000 0.000000 0.000000 0.000000 0.000000 0.000000 10.000000 
L_front_hand 0.000000 0.000000 0.000000 0.000000 0.000000 0.000000 10.000000 
L_weapon_bone 0.000000 0.000000 0.000000 0.000000 0.000000 0.000000 10.000000 
L_front_hand01_01 0.000000 0.000000 0.000000 0.000000 0.000000 0.000000 10.000000 
L_front_hand02_01 0.000000 0.000000 0.000000 0.000000 0.000000 0.000000 10.000000 
L_front_hand03_01 0.000000 0.000000 0.000000 0.000000 0.000000 0.000000 10.000000 
L_front_hand01_02 0.000000 0.000000 0.000000 0.000000 0.000000 0.000000 10.000000 
L_front_hand02_02 0.000000 0.000000 0.000000 0.000000 0.000000 0.000000 10.000000 
L_front_hand03_02 0.000000 0.000000 0.000000 0.000000 0.000000 0.000000 10.000000 
R_forearm 0.000000 0.000000 0.000000 0.000000 0.000000 0.000000 10.000000 
R_front_hand 0.000000 0.000000 0.000000 0.000000 0.000000 0.000000 10.000000 
R_weapon_bone 0.000000 0.000000 0.000000 0.000000 0.000000 0.000000 10.000000 
R_front_hand01_01 0.000000 0.000000 0.000000 0.000000 0.000000 0.000000 10.000000 
R_front_hand02_01 0.000000 0.000000 0.000000 0.000000 0.000000 0.000000 10.000000 
R_front_hand03_01 0.000000 0.000000 0.000000 0.000000 0.000000 0.000000 10.000000 
R_front_hand01_02 0.000000 0.000000 0.000000 0.000000 0.000000 0.000000 10.000000 
R_front_hand02_02 0.000000 0.000000 0.000000 0.000000 0.000000 0.000000 10.000000 
R_front_hand03_02 0.000000 0.000000 0.000000 0.000000 0.000000 0.000000 10.000000 
null_rope01_connect 0.000000 0.000000 0.000000 0.000000 0.000000 0.000000 10.000000 
Rope1_Seg01 0.000000 0.000000 0.000000 0.000000 0.000000 0.000000 10.000000 
Rope1_Seg02 0.000000 0.000000 0.000000 0.000000 0.000000 0.000000 10.000000 
Rope1_Seg03 0.000000 0.000000 0.000000 0.000000 0.000000 0.000000 10.000000 
Rope1_Seg04 0.000000 0.000000 0.000000 0.000000 0.000000 0.000000 10.000000 
Rope1_Seg05 0.000000 0.000000 0.000000 0.000000 0.000000 0.000000 10.000000 
Rope1_Seg06 0.000000 0.000000 0.000000 0.000000 0.000000 0.000000 10.000000 
Rope1_Seg07 0.000000 0.000000 0.000000 0.000000 0.000000 0.000000 10.000000 
Rope1_Seg09 0.000000 0.000000 0.000000 0.000000 0.000000 0.000000 10.000000 
L_mid_hand01 0.000000 0.000000 0.000000 0.000000 0.000000 0.000000 10.000000 
L_mid_hand02 0.000000 0.000000 0.000000 0.000000 0.000000 0.000000 10.000000 
L_mid_hand03 0.000000 0.000000 0.000000 0.000000 0.000000 0.000000 10.000000 
null_rope02_connect 0.000000 0.000000 0.000000 0.000000 0.000000 0.000000 10.000000 
Rope2_Seg01 0.000000 0.000000 0.000000 0.000000 0.000000 0.000000 10.000000 
Rope2_Seg02 0.000000 0.000000 0.000000 0.000000 0.000000 0.000000 10.000000 
Rope2_Seg03 0.000000 0.000000 0.000000 0.000000 0.000000 0.000000 10.000000 
Rope2_Seg04 0.000000 0.000000 0.000000 0.000000 0.000000 0.000000 10.000000 
Rope2_Seg05 0.000000 0.000000 0.000000 0.000000 0.000000 0.000000 10.000000 
Rope2_Seg06 0.000000 0.000000 0.000000 0.000000 0.000000 0.000000 10.000000 
Rope2_Seg07 0.000000 0.000000 0.000000 0.000000 0.000000 0.000000 10.000000 
Rope2_Seg09 0.000000 0.000000 0.000000 0.000000 0.000000 0.000000 10.000000 
R_mid_hand01 0.000000 0.000000 0.000000 0.000000 0.000000 0.000000 10.000000 
R_mid_hand02 0.000000 0.000000 0.000000 0.000000 0.000000 0.000000 10.000000 
R_mid_hand03 0.000000 0.000000 0.000000 0.000000 0.000000 0.000000 10.000000 
spine02 0.000000 0.000000 0.000000 0.000000 0.000000 0.000000 10.000000 
spine03 0.000000 0.000000 0.000000 0.000000 0.000000 0.000000 10.000000 
pelvis 0.000000 0.000000 0.000000 0.000000 0.000000 0.000000 10.000000 
null_rope03_connect 0.000000 0.000000 0.000000 0.000000 0.000000 0.000000 10.000000 
null_rope04_connect 0.000000 0.000000 0.000000 0.000000 0.000000 0.000000 10.000000 
Rope3_Seg01 0.000000 0.000000 0.000000 0.000000 0.000000 0.000000 10.000000 
Rope3_Seg02 0.000000 0.000000 0.000000 0.000000 0.000000 0.000000 10.000000 
Rope3_Seg03 0.000000 0.000000 0.000000 0.000000 0.000000 0.000000 10.000000 
Rope3_Seg04 0.000000 0.000000 0.000000 0.000000 0.000000 0.000000 10.000000 
Rope3_Seg05 0.000000 0.000000 0.000000 0.000000 0.000000 0.000000 10.000000 
Rope3_Seg06 0.000000 0.000000 0.000000 0.000000 0.000000 0.000000 10.000000 
Rope3_Seg07 0.000000 0.000000 0.000000 0.000000 0.000000 0.000000 10.000000 
Rope3_Seg08 0.000000 0.000000 0.000000 0.000000 0.000000 0.000000 10.000000 
Rope3_Seg09 0.000000 0.000000 0.000000 0.000000 0.000000 0.000000 10.000000 
R_rear_hand01 0.000000 0.000000 0.000000 0.000000 0.000000 0.000000 10.000000 
R_rear_hand02 0.000000 0.000000 0.000000 0.000000 0.000000 0.000000 10.000000 
R_rear_hand03 0.000000 0.000000 0.000000 0.000000 0.000000 0.000000 10.000000 
Rope4_Seg01 0.000000 0.000000 0.000000 0.000000 0.000000 0.000000 10.000000 
Rope4_Seg02 0.000000 0.000000 0.000000 0.000000 0.000000 0.000000 10.000000 
Rope4_Seg03 0.000000 0.000000 0.000000 0.000000 0.000000 0.000000 10.000000 
Rope4_Seg04 0.000000 0.000000 0.000000 0.000000 0.000000 0.000000 10.000000 
Rope4_Seg05 0.000000 0.000000 0.000000 0.000000 0.000000 0.000000 10.000000 
Rope4_Seg06 0.000000 0.000000 0.000000 0.000000 0.000000 0.000000 10.000000 
Rope4_Seg07 0.000000 0.000000 0.000000 0.000000 0.000000 0.000000 10.000000 
Rope4_Seg08 0.000000 0.000000 0.000000 0.000000 0.000000 0.000000 10.000000 
Rope4_Seg09 0.000000 0.000000 0.000000 0.000000 0.000000 0.000000 10.000000 
L_rear_hand01 0.000000 0.000000 0.000000 0.000000 0.000000 0.000000 10.000000 
L_rear_hand02 0.000000 0.000000 0.000000 0.000000 0.000000 0.000000 10.000000 
L_rear_hand03 0.000000 0.000000 0.000000 0.000000 0.000000 0.000000 10.000000 
#Beginning of Data. Separated by tabs
#Fr	Tx	Ty	Tz	Rx	Ry	Rz	SF
[MASTER]
34 0.000003 -0.000018 -5205.534180 0.001660 0.001660 0.001660 5205.534180
35 0.000003 -0.000017 -5160.772949 0.001660 0.001660 0.001660 5160.772949
[root]
34 -16.502304 6.601410 1449.666016 -89.113647 -25.544834 -90.307564 1449.775024
35 -16.502304 7.450049 1449.246216 -91.432060 -27.068384 -89.330521 1449.359253
[chest]
34 -84.512650 -34.090519 0.000000 -2.513238 -1.749058 -174.543823 91.129311
35 -84.512650 -34.090519 0.000000 -2.481989 -1.464348 -176.931961 91.129311
[L_mid_tent01]
34 27.299221 22.178802 -249.918640 -6.345985 32.669067 60.425400 252.381607
35 27.299219 22.178816 -249.918655 -10.744442 29.679941 50.211868 252.381622
[R_mid_tent01]
34 23.228794 24.509907 226.238495 174.888443 -42.725399 66.247177 228.744751
35 23.228794 24.509907 226.238495 -179.077545 -39.079903 56.312080 228.744751
[spine01]
34 -0.361383 -0.195265 0.000000 0.001846 0.001450 13.709162 0.410763
35 -0.361383 -0.195265 0.000000 0.001860 0.001432 14.800702 0.410763
[Bip01_Neck]
34 165.484543 71.581718 0.000119 176.643677 -1.657967 43.431911 180.302734
35 165.484543 71.581718 0.000119 176.643677 -1.657967 43.431911 180.302734
[L_humerus]
34 -13.983130 -135.272980 -120.471481 166.104294 54.144783 -94.104851 181.680161
35 -13.983130 -135.272980 -120.471481 162.408646 62.627289 -102.360031 181.680161
[R_humerus]
34 -13.983309 -135.273102 125.287651 -174.003220 -50.085758 -90.478539 184.909012
35 -13.983309 -135.273102 125.287651 -172.956528 -58.621220 -91.824440 184.909012
[weapon_bone]
34 235.964890 -300.705902 0.000000 0.000000 -89.951546 -128.212341 382.234833
35 235.964890 -300.705902 0.000000 0.000000 -89.951546 -128.212341 382.234833
[Bip01_Head]
34 213.444473 185.715591 11.777021 4.962490 2.797846 -43.898743 283.174011
35 213.444443 185.715561 11.777013 4.962490 2.797846 -43.898743 283.173981
[eye_left_bone]
34 -24.626970 125.451866 -64.772606 0.000000 -90.000000 -99.840431 143.318359
35 -24.626970 125.451866 -64.772606 0.000000 -90.000000 -99.840431 143.318359
[eye_right_bone]
34 -24.626970 125.451866 64.327362 0.000000 -89.965736 80.156380 143.117676
35 -24.626970 125.451866 64.327362 0.000000 -89.965736 80.156380 143.117676
[L_forearm]
34 322.776093 0.000000 -0.000119 0.000159 -0.002342 -97.778465 322.776093
35 322.776093 0.000000 -0.000119 0.000197 -0.002339 -99.623245 322.776093
[L_front_hand]
34 241.149185 -0.042021 -3.300071 -178.667953 -1.835447 -27.422350 241.171753
35 241.149185 -0.042021 -3.300071 -178.667953 -1.835447 -27.422350 241.171753
[L_weapon_bone]
34 156.183838 0.000000 0.000000 0.000014 0.000007 0.000001 156.183838
35 156.183838 0.000000 0.000000 0.000014 0.000007 0.000001 156.183838
[L_front_hand01_01]
34 86.095154 20.947098 -0.655860 -0.366594 -0.477154 75.385574 88.609184
35 86.095154 20.947098 -0.655860 -0.366594 -0.477154 75.385574 88.609184
[L_front_hand02_01]
34 86.935165 -11.437475 24.513514 154.399796 -59.883835 -61.369587 91.046425
35 86.935165 -11.437475 24.513514 154.399796 -59.883835 -61.369587 91.046425
[L_front_hand03_01]
34 86.637497 -14.123976 -20.424902 -153.913849 58.118130 -62.702866 90.126129
35 86.637497 -14.123976 -20.424902 -153.913849 58.118130 -62.702866 90.126129
[L_front_hand01_02]
34 71.020905 -0.000179 0.000030 0.000334 -0.002323 -106.379684 71.020905
35 71.020905 -0.000179 0.000030 0.000334 -0.002323 -106.379684 71.020905
[L_front_hand02_02]
34 71.020927 -0.000119 0.000060 0.000334 -0.002323 -106.379684 71.020927
35 71.020927 -0.000119 0.000060 0.000334 -0.002323 -106.379684 71.020927
[L_front_hand03_02]
34 71.020905 -0.000060 0.000060 0.000334 -0.002323 -106.379684 71.020905
35 71.020905 -0.000060 0.000060 0.000334 -0.002323 -106.379684 71.020905
[R_forearm]
34 322.776428 -0.000060 0.000030 0.212552 0.019901 -96.326080 322.776428
35 322.776428 -0.000060 0.000030 0.208463 0.026596 -98.191154 322.776428
[R_front_hand]
34 238.847015 -0.006795 2.210259 -2.635298 -10.645460 -26.312500 238.857239
35 238.847015 -0.006795 2.210259 -2.635298 -10.645461 -26.312506 238.857239
[R_weapon_bone]
34 155.664093 0.002503 -0.000030 0.003487 0.001180 -90.988930 155.664078
35 155.664093 0.002503 -0.000030 0.003487 0.001180 -90.988930 155.664078
[R_front_hand01_01]
34 87.624611 14.231146 22.918642 -154.633499 -59.950619 61.746044 91.683487
35 87.624611 14.231146 22.918642 -154.633499 -59.950619 61.746044 91.683487
[R_front_hand02_01]
34 89.356956 14.367283 -19.491137 154.602661 58.302849 63.744389 92.579636
35 89.356956 14.367283 -19.491137 154.602661 58.302849 63.744389 92.579636
[R_front_hand03_01]
34 87.286232 -22.307278 -0.143439 0.162155 -0.423168 -75.767921 90.091743
35 87.286232 -22.307278 -0.143439 0.162155 -0.423168 -75.767921 90.091743
[R_front_hand01_02]
34 71.020905 0.000060 0.000119 0.002323 -0.000334 106.381714 71.020905
35 71.020905 0.000060 0.000119 0.002323 -0.000334 106.381714 71.020905
[R_front_hand02_02]
34 71.020844 -0.000030 -0.000119 0.002323 -0.000334 106.381714 71.020836
35 71.020844 -0.000030 -0.000119 0.002323 -0.000334 106.381714 71.020836
[R_front_hand03_02]
34 71.020905 0.000000 0.000030 0.002323 -0.000334 106.381714 71.020905
35 71.020905 0.000000 0.000030 0.002323 -0.000334 106.381714 71.020905
[null_rope01_connect]
34 328.732483 0.000000 -0.000238 -135.743195 -57.417809 -171.148254 328.732483
35 328.732483 0.000000 -0.000238 -135.585388 -57.712669 -160.148239 328.732483
[Rope1_Seg01]
34 0.000057 -0.000043 0.000229 -19.399366 -12.290132 161.126465 0.000240
35 0.000059 -0.000042 0.000236 -25.080893 -20.968458 175.616333 0.000247
[Rope1_Seg02]
34 139.999863 -0.000179 0.000000 6.119935 13.152921 12.068419 139.999863
35 139.999863 -0.000179 0.000000 18.048685 13.152179 20.539709 139.999863
[Rope1_Seg03]
34 139.999924 0.000060 -0.000060 4.897863 11.502606 10.228523 139.999924
35 139.999924 0.000060 -0.000060 8.276147 12.912542 5.132448 139.999924
[Rope1_Seg04]
34 139.999924 -0.000060 -0.000119 -2.659014 10.829925 -28.855978 139.999924
35 139.999924 -0.000060 -0.000119 -6.053692 10.922852 -33.636177 139.999924
[Rope1_Seg05]
34 139.999832 0.000119 -0.000060 3.186901 9.672864 -24.799107 139.999832
35 139.999832 0.000119 -0.000060 -0.154388 11.051254 -22.476585 139.999832
[Rope1_Seg06]
34 139.999954 0.000119 -0.000060 3.997812 3.246133 -9.684441 139.999954
35 139.999954 0.000119 -0.000060 -0.003285 0.001660 0.001660 139.999954
[Rope1_Seg07]
34 139.999985 0.000060 0.000000 0.769125 0.347133 -1.361086 139.999985
35 139.999985 0.000060 0.000000 0.006605 0.001660 0.001660 139.999985
[Rope1_Seg09]
34 121.602913 0.000119 -0.000089 -89.793175 -1.359789 0.847147 121.602913
35 121.602913 0.000119 -0.000089 -89.793175 -1.359789 0.847147 121.602913
[L_mid_hand01]
34 103.859421 1.038730 8.195221 130.544373 -67.584534 -38.866943 104.187431
35 103.859421 1.038730 8.195221 130.544373 -67.584534 -38.866943 104.187431
[L_mid_hand02]
34 105.572853 -4.139662 -10.864139 -168.923172 43.409309 -73.498886 106.211075
35 105.572853 -4.139662 -10.864139 -168.923172 43.409309 -73.498886 106.211075
[L_mid_hand03]
34 104.641464 17.579376 -3.913581 -6.012627 17.808174 74.893669 106.179977
35 104.641464 17.579376 -3.913581 -6.012627 17.808178 74.893677 106.179977
[null_rope02_connect]
34 328.732849 0.000179 -0.000119 -123.851715 46.525772 4.598235 328.732849
35 328.732849 0.000179 -0.000119 -119.310364 51.535873 0.642586 328.732849
[Rope2_Seg01]
34 0.000067 0.000110 0.000000 66.392296 15.436193 -12.199821 0.000129
35 0.000071 0.000111 0.000000 64.708443 12.892172 -15.605466 0.000132
[Rope2_Seg02]
34 139.999741 -0.000060 -0.000119 -8.713243 -8.524151 -4.945361 139.999756
35 139.999741 -0.000060 -0.000119 -12.564998 -11.074899 -5.241932 139.999756
[Rope2_Seg03]
34 140.000107 0.000030 0.000000 -16.937458 -11.240719 -9.303184 140.000107
35 140.000107 0.000030 0.000000 -23.392429 -12.117992 -10.282726 140.000107
[Rope2_Seg04]
34 139.999802 0.000000 -0.000060 -19.968245 -6.410613 -14.635069 139.999802
35 139.999802 0.000000 -0.000060 -20.019741 -3.709279 -13.291137 139.999802
[Rope2_Seg05]
34 139.999985 -0.000060 0.000119 -21.396622 -6.187636 -20.145216 139.999985
35 139.999985 -0.000060 0.000119 -25.477074 -6.810160 -21.430508 139.999985
[Rope2_Seg06]
34 139.999893 -0.000030 -0.000119 -18.700291 -2.898616 -27.184437 139.999893
35 139.999893 -0.000030 -0.000119 -18.026608 0.507844 -25.412670 139.999893
[Rope2_Seg07]
34 139.999893 0.000060 -0.000060 -5.996762 3.577392 -14.088538 139.999893
35 139.999893 0.000060 -0.000060 -4.510693 4.200365 -10.509506 139.999893
[Rope2_Seg09]
34 121.338966 0.000089 -0.000060 33.793236 -1.359788 -0.847141 121.338966
35 121.338966 0.000089 -0.000060 33.793236 -1.359788 -0.847141 121.338966
[R_mid_hand01]
34 104.680779 11.144459 -10.335981 -16.212063 45.237247 70.462852 105.778534
35 104.680779 11.144459 -10.335981 -16.212063 45.237247 70.462852 105.778534
[R_mid_hand02]
34 104.070427 2.443552 8.231699 49.067368 -67.749771 39.286453 104.424065
35 104.070427 2.443552 8.231699 49.067368 -67.749771 39.286453 104.424065
[R_mid_hand03]
34 106.028137 -11.221827 -5.996406 -177.101105 15.551026 -76.585571 106.788818
35 106.028137 -11.221827 -5.996406 -177.101105 15.551026 -76.585571 106.788818
[spine02]
34 129.756927 0.001550 0.000119 -0.827655 -3.974334 3.920874 129.756927
35 129.756927 0.001550 0.000119 -0.640964 -4.008362 1.251415 129.756927
[spine03]
34 78.614014 0.082455 -4.898992 1.168378 4.111633 5.990179 78.766556
35 78.614021 0.082394 -4.898993 1.286083 4.075542 7.649906 78.766556
[pelvis]
34 169.435242 0.051022 0.000000 0.008611 -0.191059 -7.129698 169.435257
35 169.435242 0.051022 0.000000 -0.001948 -0.191392 -3.762684 169.435257
[null_rope03_connect]
34 -1.257226 -2.466202 137.391083 1.314613 -89.276382 97.819077 137.418976
35 -1.257226 -2.466202 137.391083 178.767288 -88.826965 -81.561089 137.418976
[null_rope04_connect]
34 -1.259640 -2.480268 -137.844437 1.314613 -89.276382 97.819077 137.872513
35 -1.259640 -2.480268 -137.844437 178.767288 -88.826965 -81.561089 137.872513
[Rope3_Seg01]
34 -0.000021 0.000029 0.000191 8.188460 -45.151566 -58.340370 0.000194
35 -0.000022 0.000029 0.000201 11.302233 -34.669079 -62.527180 0.000204
[Rope3_Seg02]
34 139.999924 -0.000119 0.000060 1.642429 11.122638 21.631367 139.999924
35 139.999924 -0.000119 0.000060 2.115257 12.125101 19.336702 139.999924
[Rope3_Seg03]
34 139.999924 -0.000119 0.000119 -2.828799 6.377587 18.883884 139.999924
35 139.999924 -0.000119 0.000119 -2.834605 6.418651 19.028662 139.999924
[Rope3_Seg04]
34 139.999924 0.000119 0.000000 -3.832541 2.929199 10.109321 139.999924
35 139.999924 0.000119 0.000000 0.011512 5.214812 8.485728 139.999924
[Rope3_Seg05]
34 139.999924 -0.000238 0.000060 12.223475 11.142035 7.898642 139.999924
35 139.999924 -0.000238 0.000060 32.416767 20.962811 -1.509709 139.999924
[Rope3_Seg06]
34 139.999893 -0.000119 -0.000060 87.288559 28.555206 7.889340 139.999893
35 139.999893 -0.000119 -0.000060 35.572887 25.076218 -21.879433 139.999893
[Rope3_Seg07]
34 139.999771 0.000060 -0.000119 28.217102 8.749576 -20.624037 139.999771
35 139.999771 0.000060 -0.000119 10.278368 5.141775 -19.433342 139.999771
[Rope3_Seg08]
34 139.999985 -0.000060 0.000000 6.414481 -1.207672 -11.792094 139.999985
35 139.999985 -0.000060 0.000000 3.153426 0.619909 -8.920808 139.999985
[Rope3_Seg09]
34 90.185997 -0.000179 -0.000060 89.793228 -1.359877 -0.847183 90.185997
35 90.185997 -0.000179 -0.000060 89.793228 -1.359877 -0.847183 90.185997
[R_rear_hand01]
34 103.366196 -6.073594 -10.757982 -177.714203 24.565960 -73.910950 104.101845
35 103.366196 -6.073594 -10.757982 -177.714203 24.565960 -73.910950 104.101845
[R_rear_hand02]
34 100.509819 12.039542 -7.992327 -12.874829 36.868488 72.167213 101.543350
35 100.509819 12.039542 -7.992327 -12.874829 36.868488 72.167213 101.543350
[R_rear_hand03]
34 101.539970 5.215704 5.435467 71.484581 -71.816628 21.513813 101.819031
35 101.539970 5.215704 5.435467 71.484581 -71.816628 21.513813 101.819031
[Rope4_Seg01]
34 0.000000 0.000000 0.000000 -89.586609 -44.499687 -122.022163 0.000000
35 0.000000 0.000000 0.000000 -93.911354 -34.001831 -115.829666 0.000000
[Rope4_Seg02]
34 139.999985 0.000060 0.000119 -5.991414 -12.059293 35.424046 139.999985
35 139.999985 0.000060 0.000119 -3.592760 -11.782993 26.673536 139.999985
[Rope4_Seg03]
34 139.999924 0.000000 -0.000238 -4.108713 -18.113377 23.749437 139.999924
35 139.999924 0.000000 -0.000238 -1.430425 -16.736557 17.201895 139.999924
[Rope4_Seg04]
34 139.999985 0.000000 0.000119 0.346334 5.359001 12.529450 139.999985
35 139.999985 0.000000 0.000119 0.855984 3.963426 11.288068 139.999985
[Rope4_Seg05]
34 139.999802 -0.000060 -0.000119 1.018055 17.502010 10.913050 139.999802
35 139.999802 -0.000060 -0.000119 1.172724 16.528753 9.387980 139.999802
[Rope4_Seg06]
34 139.999924 0.000000 0.000060 -0.930171 8.062135 6.146710 139.999924
35 139.999924 0.000000 0.000060 -0.237056 7.825944 5.212207 139.999924
[Rope4_Seg07]
34 139.999802 0.000000 0.000000 -1.268008 4.097775 3.817367 139.999802
35 139.999802 0.000000 0.000000 -0.582746 4.006863 3.247911 139.999802
[Rope4_Seg08]
34 139.999924 0.000000 0.000119 -2.528281 2.373576 2.319512 139.999924
35 139.999924 0.000000 0.000119 -2.015762 2.376480 1.968637 139.999924
[Rope4_Seg09]
34 90.185791 0.000060 0.000060 -135.617828 2.228885 0.850567 90.185791
35 90.185791 0.000060 0.000060 -135.617828 2.228885 0.850567 90.185791
[L_rear_hand01]
34 101.696655 -8.392275 -7.654577 -12.874829 -36.868488 107.832764 102.329041
35 101.696655 -8.392275 -7.654577 -12.874829 -36.868488 107.832764 102.329041
[L_rear_hand02]
34 102.726799 -1.568258 5.773216 71.484581 71.816628 158.486160 102.900848
35 102.726799 -1.568258 5.773216 71.484581 71.816628 158.486160 102.900848
[L_rear_hand03]
34 104.552910 9.721220 -10.420293 -177.714203 -24.565960 -106.089035 105.519653
35 104.552910 9.721220 -10.420293 -177.714203 -24.565960 -106.089035 105.519653
